<?xml version="1.0" standalone="no"?>
<!DOCTYPE svg PUBLIC "-//W3C//DTD SVG 20010904//EN"
 "http://www.w3.org/TR/2001/REC-SVG-20010904/DTD/svg10.dtd">
<svg version="1.0" xmlns="http://www.w3.org/2000/svg"
 width="192.000000pt" height="192.000000pt" viewBox="0 0 192.000000 192.000000"
 preserveAspectRatio="xMidYMid meet">
<metadata>
Created by potrace 1.11, written by Peter Selinger 2001-2013
</metadata>
<g transform="translate(0.000000,192.000000) scale(0.100000,-0.100000)"
fill="#000000" stroke="none">
<path d="M79 1428 c-5 -101 -2 -105 61 -103 38 1 53 -2 58 -14 4 -9 7 -87 6
-173 -1 -109 2 -158 10 -159 67 -7 126 -4 129 5 2 6 3 82 3 169 -1 97 3 161 9
166 5 4 34 7 63 6 l52 -2 0 64 0 63 -195 0 -195 0 -1 -22z"/>
<path d="M532 1363 c-37 -106 -60 -169 -105 -290 -19 -51 -32 -94 -28 -94 3
-1 38 -2 78 -3 71 -2 73 -2 82 26 10 28 11 28 95 28 83 0 86 -1 92 -25 7 -29
-1 -27 96 -29 l76 -2 -35 96 c-19 52 -52 143 -74 202 -21 59 -45 123 -53 143
l-15 35 -89 0 -89 0 -31 -87z m168 -203 c0 -7 -78 -5 -85 2 -3 2 5 38 17 78
l22 73 23 -74 c12 -41 23 -76 23 -79z"/>
<path d="M948 1443 c-3 -7 -2 -412 1 -453 1 -13 24 -15 158 -15 l158 0 1 63 1
62 -88 0 c-78 0 -89 2 -90 18 0 9 -1 88 -1 175 l-1 157 -68 0 c-37 0 -69 -3
-71 -7z"/>
<path d="M83 932 c-3 -7 -5 -28 -5 -45 0 -71 -3 -67 62 -67 50 0 60 -3 61 -17
0 -10 1 -89 1 -175 l1 -158 72 0 71 0 0 173 -1 172 63 3 63 3 -3 62 -3 62
-189 0 c-149 1 -189 -2 -193 -13z"/>
<path d="M509 940 c0 -6 0 -428 0 -452 1 -16 16 -18 176 -18 160 0 175 2 176
18 0 9 1 36 2 60 2 48 12 45 -125 44 l-88 0 0 27 0 27 93 -1 c50 0 97 1 103 3
7 2 12 27 12 63 l0 59 -103 0 c-56 0 -104 3 -107 6 -3 3 -4 14 -1 25 5 17 15
19 109 19 62 0 104 4 105 10 0 6 1 34 1 62 l1 53 -177 0 c-97 0 -176 -2 -177
-5z"/>
<path d="M1055 938 c-104 -37 -168 -129 -164 -235 2 -72 20 -118 62 -161 68
-72 170 -97 270 -68 43 13 64 26 96 63 23 25 40 50 39 55 -2 5 -30 21 -62 35
-54 25 -59 26 -68 9 -5 -9 -23 -26 -40 -35 -58 -36 -139 7 -153 82 -12 65 37
136 96 139 46 2 57 -2 86 -33 l30 -30 57 28 c61 29 62 34 23 84 -37 47 -111
79 -181 78 -34 0 -74 -5 -91 -11z"/>
<path d="M1390 708 l0 -238 70 0 70 0 0 90 0 90 85 0 85 0 0 -90 0 -90 70 0
70 0 0 238 0 238 -70 -1 -70 0 0 -82 c0 -72 -2 -83 -17 -84 -50 -4 -130 -5
-140 -1 -9 3 -13 29 -13 83 0 43 -3 80 -7 80 -5 1 -36 2 -70 3 l-63 2 0 -238z"/>
</g>
</svg>
